<svg version="1.1" xmlns="http://www.w3.org/2000/svg" xmlns:xlink="http://www.w3.org/1999/xlink" width="100.000000pt" height="100.000000pt" viewBox="0,0,256,256"><g fill="#324d3d" fill-rule="nonzero" stroke="none" stroke-width="1" stroke-linecap="butt" stroke-linejoin="miter" stroke-miterlimit="10" stroke-dasharray="" stroke-dashoffset="0" font-family="none" font-weight="none" font-size="none" text-anchor="none" style="mix-blend-mode: normal"><g transform="translate(0.15493,0.27247) scale(2.56,2.56)"><g transform="translate(0,100) scale(0.1,-0.1)"><path d="M373,896c-104,-34 -204,-123 -251,-224c-24,-51 -27,-69 -27,-167c0,-104 2,-114 32,-175c61,-124 176,-209 312,-231c166,-26 343,66 420,219c104,206 21,452 -188,555c-57,28 -76,32 -160,34c-61,2 -111,-2 -138,-11zM626,849c161,-60 265,-239 235,-404c-15,-82 -47,-142 -106,-200c-58,-59 -118,-91 -200,-106c-165,-30 -344,74 -404,235c-25,69 -28,183 -6,247c36,102 122,190 224,230c66,26 184,25 257,-2z"></path><path d="M417,786c-143,-40 -237,-191 -208,-335c55,-275 419,-325 549,-76c34,67 37,177 6,246c-61,133 -210,204 -347,165zM569,744c61,-18 123,-70 154,-128c28,-54 30,-165 3,-216c-25,-49 -74,-98 -121,-123c-56,-30 -164,-30 -221,0c-79,42 -144,145 -144,228c0,96 85,210 176,239c64,19 89,19 153,0z"></path><path d="M420,661c-104,-55 -131,-183 -57,-268c82,-93 225,-81 285,25c82,147 -81,322 -228,243zM557,623c127,-60 78,-253 -64,-253c-113,0 -174,140 -96,222c48,51 98,61 160,31z"></path><path d="M469,524c-17,-21 0,-49 32,-49c27,0 37,28 19,50c-16,19 -34,19 -51,-1z"></path></g></g></g></svg>