<svg version="1.1" xmlns="http://www.w3.org/2000/svg" xmlns:xlink="http://www.w3.org/1999/xlink" width="512px"
     height="506.9px" viewBox="0,0,256,253.45">
    <g fill="#ffffff" fill-rule="nonzero" stroke="none" stroke-width="1" stroke-linecap="butt" stroke-linejoin="miter"
       stroke-miterlimit="10" stroke-dasharray="" stroke-dashoffset="0" style="mix-blend-mode: normal">
        <g transform="translate(-0.00601,0.00123) scale(0.5,0.5)">
            <g>
                <path d="M202.6,506.9c-23.6,0 -47.1,-8.8 -65.1,-26.3c-8.5,-8.3 -15.3,-18 -20.1,-28.7c-12.4,-27.8 -34.6,-50 -62.4,-62.5c-10.8,-4.8 -20.4,-11.6 -28.7,-20.1c-35.1,-36 -35,-94.6 0.2,-130.5c14.4,-14.5 32.7,-23.8 52.9,-26.8c11.5,-1.7 21.7,-6.8 29.6,-14.8l0.6,-0.6c21.9,-21.9 53.1,-31.4 87.8,-27c33.3,4.3 66.2,21.2 92.5,47.5c26.3,26.3 43.2,59.2 47.5,92.5c4.5,34.8 -5.1,66 -27,87.8l-0.6,0.5c-8,7.9 -13.1,18.1 -14.8,29.6c-3,20.2 -12.3,38.5 -26.9,52.9c-18.1,17.7 -41.8,26.5 -65.5,26.5M181.1,198.5c-19.5,0 -37.3,6.3 -50.4,19.3l-0.4,0.4c-12.5,12.7 -28.6,20.8 -46.6,23.5c-13.7,2 -26.1,8.3 -35.8,18.3c-23.9,24.4 -24,64.1 -0.2,88.5c5.6,5.8 12.2,10.4 19.5,13.6c34.6,15.5 62.1,43 77.6,77.6c3.3,7.3 7.8,13.8 13.6,19.5c24.5,23.8 64.2,23.8 88.5,-0.2c9.9,-9.7 16.2,-22.1 18.3,-35.8c2.7,-18 10.8,-34.1 23.5,-46.6l0.4,-0.4c15.1,-15.1 21.7,-37.4 18.4,-62.8c-3.5,-26.8 -17.3,-53.4 -38.9,-75.1c-26.1,-26.1 -58.6,-39.8 -87.5,-39.8"></path>
                <path d="M302.6,152.1c-17.3,0 -32.8,-6.1 -44.3,-17.6c-13.4,-13.4 -19.5,-32.3 -17.1,-53.1c2.3,-19.5 11.8,-38.7 27,-53.8c15.2,-15.2 34.3,-24.7 53.8,-27c20.8,-2.4 39.7,3.7 53.1,17.1c13.4,13.4 19.5,32.3 17.1,53.1c-2.3,19.5 -11.8,38.6 -27,53.8c-15.2,15.2 -34.3,24.7 -53.8,27c-3,0.3 -5.9,0.5 -8.8,0.5M330.7,30c-1.7,0 -3.5,0.1 -5.2,0.3c-12.8,1.5 -25.6,8 -36,18.4c-10.4,10.4 -16.9,23.2 -18.4,36c-1.3,11.5 1.7,21.7 8.5,28.5c6.8,6.8 16.9,9.8 28.5,8.5c12.8,-1.5 25.6,-8 36,-18.4c10.4,-10.4 16.9,-23.2 18.4,-36c1.3,-11.5 -1.7,-21.7 -8.5,-28.5c-5.9,-5.7 -14,-8.8 -23.3,-8.8"></path>
                <path d="M101.1,159.7c-17.3,0 -32.8,-6.1 -44.3,-17.6c-13.5,-13.4 -19.5,-32.3 -17.1,-53.1c2.3,-19.5 11.8,-38.6 27,-53.8c15.2,-15.2 34.3,-24.7 53.8,-27c20.8,-2.4 39.7,3.7 53.1,17.1c13.4,13.4 19.5,32.3 17.1,53.1c-2.3,19.5 -11.8,38.6 -27,53.8c-15.2,15.2 -34.3,24.7 -53.8,27c-3,0.4 -5.9,0.5 -8.8,0.5M129.2,37.7c-1.7,0 -3.5,0.1 -5.2,0.3c-12.8,1.5 -25.6,8 -36,18.4c-10.5,10.4 -17,23.2 -18.5,36c-1.3,11.5 1.7,21.7 8.5,28.5c6.8,6.8 16.9,9.8 28.5,8.5c12.8,-1.5 25.6,-8 36,-18.4c10.4,-10.4 16.9,-23.2 18.4,-36c1.3,-11.5 -1.7,-21.7 -8.5,-28.5c-5.8,-5.8 -13.9,-8.8 -23.2,-8.8"></path>
                <path d="M421.9,271.4c-17.3,0 -32.8,-6.1 -44.3,-17.6c-13.4,-13.4 -19.5,-32.3 -17.1,-53.1c2.3,-19.5 11.8,-38.6 27,-53.8c15.2,-15.2 34.3,-24.7 53.8,-27c20.8,-2.4 39.7,3.7 53.1,17.1c13.4,13.4 19.5,32.3 17.1,53.1c-2.3,19.5 -11.8,38.6 -27,53.8c-15.2,15.2 -34.3,24.7 -53.8,27c-3,0.3 -6,0.5 -8.8,0.5M449.9,149.3c-1.7,0 -3.5,0.1 -5.2,0.3c-12.8,1.5 -25.6,8 -36,18.4c-10.4,10.4 -16.9,23.2 -18.4,36c-1.3,11.5 1.7,21.7 8.5,28.5c6.8,6.8 16.9,9.8 28.5,8.5c12.8,-1.5 25.6,-8 36,-18.4c10.4,-10.4 16.9,-23.2 18.4,-36c1.3,-11.5 -1.7,-21.7 -8.5,-28.5c-5.8,-5.8 -13.9,-8.8 -23.3,-8.8"></path>
                <path d="M411.8,470.4c-17.3,0 -32.8,-6.1 -44.3,-17.6c-13.4,-13.4 -19.5,-32.3 -17.1,-53.1c2.3,-19.5 11.8,-38.6 27,-53.8c15.2,-15.2 34.3,-24.7 53.8,-27c20.8,-2.4 39.7,3.7 53.1,17.1c13.4,13.4 19.5,32.3 17.1,53.1c-2.3,19.5 -11.8,38.6 -27,53.8c-15.2,15.2 -34.3,24.7 -53.8,27c-3,0.3 -5.9,0.5 -8.8,0.5M439.8,348.3c-1.7,0 -3.5,0.1 -5.2,0.3c-12.8,1.5 -25.6,8 -36,18.4c-10.4,10.4 -16.9,23.2 -18.4,36c-1.3,11.5 1.7,21.7 8.5,28.5c6.8,6.8 16.9,9.8 28.5,8.5c12.8,-1.5 25.6,-8 36,-18.4c10.4,-10.4 16.9,-23.2 18.4,-36c1.3,-11.5 -1.7,-21.7 -8.5,-28.5c-5.8,-5.7 -13.9,-8.8 -23.3,-8.8"></path>
            </g>
            <g>
                <path d="M281.7,435.8c2.3,-15.4 9.3,-29.6 20.3,-40.5c0.2,-0.2 0.3,-0.3 0.5,-0.5c40.6,-40.6 30.9,-116.3 -21.8,-169c-52.7,-52.7 -128.3,-62.4 -169,-21.8c-0.2,0.2 -0.4,0.4 -0.5,0.5c-10.9,11.1 -25.1,18.1 -40.4,20.3c-17.3,2.6 -33.9,10.6 -47.1,24c-31.5,32.2 -31.6,84.2 -0.2,116.5c7.6,7.8 16.3,13.7 25.6,17.9c33.2,14.8 59.5,41.2 74.4,74.4c4.2,9.3 10.1,18 17.9,25.6c32.2,31.4 84.2,31.3 116.3,-0.2c13.4,-13.3 21.4,-30 24,-47.2"></path>
                <path d="M280.2,24.5c28,-28 68.8,-32.7 91,-10.5c22.2,22.2 17.5,63 -10.5,91c-28,28 -68.8,32.7 -91,10.5c-22.2,-22.2 -17.5,-62.9 10.5,-91"></path>
                <path d="M66.2,32.6c28,-28 68.8,-32.7 91,-10.5c22.2,22.2 17.5,63 -10.5,91c-28,28 -68.8,32.7 -91,10.5c-22.2,-22.2 -17.5,-62.9 10.5,-91"></path>
                <path d="M406.9,151.2c28,-28 68.8,-32.7 91,-10.5c22.2,22.2 17.5,63 -10.5,91c-28,28 -68.8,32.7 -91,10.5c-22.3,-22.2 -17.6,-62.9 10.5,-91"></path>
                <path d="M396.1,362.6c28,-28 68.8,-32.7 91,-10.5c22.2,22.2 17.5,63 -10.5,91c-28,28 -68.8,32.7 -91,10.5c-22.2,-22.2 -17.5,-63 10.5,-91"></path>
            </g>
        </g>
    </g>
</svg>