<svg version="1.1" xmlns="http://www.w3.org/2000/svg" xmlns:xlink="http://www.w3.org/1999/xlink" width="512.000000pt" height="512.000000pt" viewBox="0,0,256,256"><g fill="#ffffff" fill-rule="nonzero" stroke="none" stroke-width="1" stroke-linecap="butt" stroke-linejoin="miter" stroke-miterlimit="10" stroke-dasharray="" stroke-dashoffset="0" font-family="none" font-weight="none" font-size="none" text-anchor="none" style="mix-blend-mode: normal"><g transform="translate(0.00466,0.08444) scale(0.5,0.5)"><g transform="translate(0,512) scale(0.1,-0.1)"><path d="M2436,5104c-125,-27 -179,-62 -441,-280l-174,-144h-471c-511,0 -515,0 -558,-55c-22,-27 -22,-33 -22,-424l-1,-396l-315,-260c-174,-143 -320,-268 -325,-277c-14,-27 -12,-2757 3,-2817c18,-75 71,-182 121,-243c60,-72 178,-151 270,-180l72,-23h1965h1965l70,22c146,46 276,159 344,297c22,45 44,105 50,133c7,36 11,492 11,1425c1,1301 0,1374 -17,1395c-10,12 -158,139 -330,283l-312,260l-3,394c-3,378 -4,395 -23,416c-44,49 -53,50 -550,50h-466l-177,148c-267,224 -305,247 -447,277c-90,18 -148,18 -239,-1zM2630,4875c62,-9 114,-38 214,-120l85,-70l-184,-3c-102,-1 -268,-1 -370,0l-184,3l79,65c44,36 101,77 128,92c45,26 139,49 172,43c8,-2 35,-6 60,-10zM4099,3603v-848l-659,-490c-363,-269 -689,-506 -726,-525c-62,-32 -74,-35 -154,-35c-80,0 -92,3 -153,35c-37,19 -368,260 -737,535l-670,499v832c0,457 3,834 7,837c3,4 701,7 1550,7h1543zM4538,3351c89,-74 162,-137 162,-140c0,-4 -66,-56 -147,-116c-82,-60 -163,-120 -180,-133l-33,-24v286c0,275 1,287 18,274c10,-7 91,-73 180,-147zM768,3090l-3,-141l-172,128c-95,70 -171,132 -170,136c1,4 79,71 172,148l170,140l3,-135c1,-74 1,-198 0,-276zM1323,2245c586,-439 923,-684 974,-710c96,-49 160,-65 265,-65c98,0 182,21 268,66c36,19 475,341 975,715c501,374 922,689 938,700l27,21l-2,-1239l-3,-1238l-26,-55c-34,-73 -99,-136 -179,-174l-65,-31l-1885,-3c-1280,-2 -1907,1 -1953,8c-110,17 -193,68 -251,157c-58,87 -56,43 -56,1361v1214l38,-29c21,-15 442,-329 935,-698z"></path><path d="M1784,3494c-57,-28 -79,-96 -49,-154c31,-61 25,-60 418,-60h359l34,34c28,28 34,41 34,79c0,49 -28,89 -75,107c-16,6 -163,10 -358,10c-275,0 -337,-3 -363,-16z"></path><path d="M1772,2904c-49,-34 -65,-104 -35,-155c36,-61 10,-59 823,-59c817,0 793,-2 825,61c26,49 19,97 -19,135l-34,34h-769c-680,0 -771,-2 -791,-16z"></path></g></g></g></svg>