<svg version="1.1" xmlns="http://www.w3.org/2000/svg" xmlns:xlink="http://www.w3.org/1999/xlink" width="512.000000pt" height="512.000000pt" viewBox="0,0,256,256"><g fill="#ffffff" fill-rule="nonzero" stroke="none" stroke-width="1" stroke-linecap="butt" stroke-linejoin="miter" stroke-miterlimit="10" stroke-dasharray="" stroke-dashoffset="0" font-family="none" font-weight="none" font-size="none" text-anchor="none" style="mix-blend-mode: normal"><g transform="translate(-0.025,-0.00839) scale(0.5,0.5)"><g transform="translate(0,512) scale(0.1,-0.1)"><path d="M1253,4939c-69,-27 -155,-107 -188,-172c-117,-241 -28,-603 189,-767c179,-135 414,-91 513,97c51,95 66,170 60,303c-3,96 -9,128 -34,196c-82,220 -234,353 -411,361c-60,2 -88,-1 -129,-18zM1482,4758c88,-61 156,-174 184,-309c22,-106 1,-236 -48,-299c-51,-65 -145,-88 -224,-55c-50,20 -134,110 -167,178c-60,123 -73,275 -32,387c18,51 66,106 110,126c47,22 120,10 177,-28z"></path><path d="M2522,4942c-141,-50 -249,-169 -315,-347c-39,-104 -49,-272 -22,-375c34,-133 97,-217 202,-270c66,-34 194,-35 267,-2c192,87 336,330 336,567c0,86 -30,212 -65,271c-83,142 -255,208 -403,156zM2693,4787c58,-25 103,-86 121,-165c21,-92 20,-132 -3,-224c-25,-97 -58,-161 -115,-225c-134,-149 -297,-116 -351,71c-23,80 -17,219 14,298c72,186 218,293 334,245z"></path><path d="M413,4081c-123,-45 -208,-141 -237,-271c-20,-87 -20,-141 0,-238c49,-241 226,-452 459,-548c63,-26 81,-29 180,-29c100,0 115,3 166,28c150,73 234,245 209,428c-21,154 -70,267 -168,391c-88,110 -205,193 -341,239c-72,25 -198,25 -268,0zM690,3899c204,-95 341,-300 343,-513c1,-86 -23,-146 -75,-192c-80,-70 -179,-72 -311,-6c-172,85 -303,274 -323,465c-13,124 46,238 141,273c58,21 145,11 225,-27z"></path><path d="M3309,4077c-187,-68 -334,-199 -424,-377c-41,-81 -61,-149 -75,-249c-25,-186 53,-345 212,-428c49,-26 61,-28 168,-28c102,1 122,4 179,28c169,71 311,206 391,371c94,194 103,352 30,502c-36,74 -101,136 -178,172c-84,38 -211,42 -303,9zM3534,3928c97,-29 154,-138 142,-271c-23,-251 -249,-494 -471,-505c-127,-7 -208,55 -234,180c-21,95 19,251 90,355c130,189 321,286 473,241z"></path><path d="M1844,3475c-151,-33 -322,-135 -412,-246c-24,-30 -69,-96 -99,-149c-73,-124 -202,-254 -323,-324c-197,-114 -304,-235 -371,-417c-72,-199 -57,-408 44,-603c58,-114 190,-245 304,-304c168,-87 339,-106 558,-64c162,32 270,42 455,42c164,0 346,-17 477,-44c121,-25 226,-30 260,-13c34,18 43,34 43,76c0,45 -37,71 -101,71c-30,1 -90,7 -134,15c-250,46 -288,50 -545,50c-253,0 -317,-6 -495,-42c-240,-50 -432,3 -586,158c-213,215 -221,562 -19,791c37,43 74,70 250,183c135,87 232,193 331,360c29,50 78,116 110,147c232,227 605,221 830,-14c27,-28 75,-97 109,-154c73,-125 135,-194 174,-194c31,0 86,48 86,75c0,22 -17,53 -50,92c-15,17 -53,74 -84,127c-92,157 -213,271 -353,332c-134,60 -320,79 -459,49z"></path><path d="M2973,2616l-28,-24l-3,-981c-2,-818 0,-986 12,-1014c13,-32 30,-40 498,-235c266,-111 491,-202 499,-202c32,0 974,400 992,421c16,20 17,83 17,1006c0,1015 0,1010 -39,1040c-12,10 -235,12 -968,13h-952zM4798,1579l-3,-901l-405,-169c-223,-93 -414,-172 -425,-175c-12,-3 -181,62 -430,167c-225,94 -416,173 -422,176c-10,4 -13,194 -13,904v899h850h850z"></path><path d="M3685,2088c-40,-23 -44,-39 -45,-170v-128h-130c-126,0 -132,-1 -155,-25l-25,-24v-259c0,-334 -12,-312 176,-312h134v-129c0,-115 2,-131 21,-155l20,-26h270c258,0 270,1 287,20c14,17 18,47 22,153l5,132l137,5c122,4 139,7 152,25c13,17 15,64 16,283v263l-25,24c-23,24 -29,25 -155,25h-130v130c0,126 -1,132 -25,155l-24,25h-253c-171,-1 -259,-4 -273,-12zM4102,1809c3,-129 3,-131 31,-155c26,-23 35,-24 153,-24h124v-149v-149l-130,-3c-176,-5 -174,-3 -178,-179l-4,-130h-149h-149v124c0,118 -1,127 -24,153c-24,28 -26,28 -155,31l-131,4v149v149h130c126,0 132,1 155,25c24,23 25,29 25,155v130h149h149z"></path></g></g></g></svg>